<svg id="Layer_1" data-name="Layer 1" xmlns="http://www.w3.org/2000/svg" xmlns:xlink="http://www.w3.org/1999/xlink" viewBox="0 0 1030.62 362.58"><defs><style>.cls-1{fill:url(#linear-gradient);}.cls-2{fill:url(#linear-gradient-2);}.cls-3{fill:url(#linear-gradient-3);}.cls-4{fill:url(#linear-gradient-4);}.cls-5{fill:url(#linear-gradient-5);}.cls-6{fill:url(#linear-gradient-6);}.cls-7{fill:url(#linear-gradient-7);}.cls-8{fill:url(#linear-gradient-8);}.cls-9{fill:none;}.cls-10{fill:#181818;}.cls-11{fill:url(#linear-gradient-9);}</style><linearGradient id="linear-gradient" x1="39.23" y1="69.59" x2="493.96" y2="71.99" gradientUnits="userSpaceOnUse"><stop offset="0" stop-color="#ef5135"/><stop offset="1" stop-color="#e02369"/></linearGradient><linearGradient id="linear-gradient-2" x1="39.19" y1="77.02" x2="493.92" y2="79.42" xlink:href="#linear-gradient"/><linearGradient id="linear-gradient-3" x1="39.19" y1="77.76" x2="493.92" y2="80.17" xlink:href="#linear-gradient"/><linearGradient id="linear-gradient-4" x1="39.19" y1="76.52" x2="493.92" y2="78.93" xlink:href="#linear-gradient"/><linearGradient id="linear-gradient-5" x1="39.24" y1="68.25" x2="493.97" y2="70.66" xlink:href="#linear-gradient"/><linearGradient id="linear-gradient-6" x1="39.24" y1="67.14" x2="493.97" y2="69.55" xlink:href="#linear-gradient"/><linearGradient id="linear-gradient-7" x1="39.2" y1="75.7" x2="493.93" y2="78.1" xlink:href="#linear-gradient"/><linearGradient id="linear-gradient-8" x1="39.14" y1="86.99" x2="493.87" y2="89.4" xlink:href="#linear-gradient"/><linearGradient id="linear-gradient-9" x1="903.44" y1="135.37" x2="977.53" y2="135.37" xlink:href="#linear-gradient"/></defs><title>CatalystArtboard 1</title><path class="cls-1" d="M38.73,30.38H52.55V55.63h.21a15.18,15.18,0,0,1,6.08-5.14A27.94,27.94,0,0,1,66.68,48c.69-.07,1.35-.12,2-.15s1.25-.05,1.87-.05a26.39,26.39,0,0,1,20.78,9.25,31.5,31.5,0,0,1,8.1,21.41,34.7,34.7,0,0,1-.21,3.69A23.68,23.68,0,0,1,98.48,86,34.69,34.69,0,0,1,96,93.24,28.12,28.12,0,0,1,92,99.48a24.94,24.94,0,0,1-9.45,7.12A28.89,28.89,0,0,1,70.94,109a26.74,26.74,0,0,1-11-2.23,19.22,19.22,0,0,1-8.36-7.33l-.21-.1v7.79H38.73ZM56.92,66a15.08,15.08,0,0,0-5.2,11.79A18,18,0,0,0,56.5,90.49a16.36,16.36,0,0,0,12.57,5.14A15.59,15.59,0,0,0,81,90.73a17.19,17.19,0,0,0,4.57-12.2A17.61,17.61,0,0,0,81,66.29a15.36,15.36,0,0,0-11.95-5.05A18.14,18.14,0,0,0,56.92,66Z"/><path class="cls-2" d="M107.31,49.6h12.57v5.2h.21a16,16,0,0,1,5.2-5.25,13.9,13.9,0,0,1,7.17-1.71l1-.1V61.13c-.49.07-1,.12-1.46.15a7.12,7.12,0,0,0-1.45.26,18.65,18.65,0,0,0-2.91.88,9.6,9.6,0,0,0-2.6,1.51,8.88,8.88,0,0,0-3.27,4.83,24.48,24.48,0,0,0-.68,5.87v32.52H107.31Z"/><path class="cls-3" d="M198.85,107.16H186.17V99.37H186a20.26,20.26,0,0,1-6.86,6.13,28.31,28.31,0,0,1-8.83,3.22l-1.92.21a18.55,18.55,0,0,1-1.92.1,27.92,27.92,0,0,1-12.05-2.54,26.48,26.48,0,0,1-9.14-7,30.58,30.58,0,0,1-5.3-9.56,36.36,36.36,0,0,1-.16-22.55,27.83,27.83,0,0,1,5.66-9.56,28.32,28.32,0,0,1,9.72-7.53,27.84,27.84,0,0,1,11.69-2.44,23.65,23.65,0,0,1,10.91,2.55,23,23,0,0,1,8.42,7.43V49.6h12.68ZM185.76,78.28a17,17,0,0,0-4.62-12.11,15.39,15.39,0,0,0-12-4.83,16,16,0,0,0-12.42,5A17.7,17.7,0,0,0,151.88,79a15.84,15.84,0,0,0,5,11.9,16.37,16.37,0,0,0,12,4.73,15.58,15.58,0,0,0,12.16-4.88,17.38,17.38,0,0,0,4.67-12.36Z"/><path class="cls-4" d="M209.13,49.6h12.78v5.3h.21a15.78,15.78,0,0,1,6.29-5,23.82,23.82,0,0,1,8.16-2.08h2.08a3.57,3.57,0,0,1,.83.1A22.92,22.92,0,0,1,254.23,55l.78.78a4.53,4.53,0,0,1,.68.88,21.32,21.32,0,0,1,3.95,10,92.11,92.11,0,0,1,.62,10.81v29.72H246.44V77.34q0-1.45-.1-2.91a30.21,30.21,0,0,0-.73-4.42,14.36,14.36,0,0,0-1.56-3.9,9.8,9.8,0,0,0-3.69-3.32,12.36,12.36,0,0,0-4.83-1.45h-1.3a3.25,3.25,0,0,0-.78.1,12.73,12.73,0,0,0-4.68,1.61,9.46,9.46,0,0,0-3.53,3.38,12.7,12.7,0,0,0-1.56,3.9,24.68,24.68,0,0,0-.62,4.52c-.07.9-.1,1.8-.1,2.7v29.61H209.13Z"/><path class="cls-5" d="M329.56,107.16H316.88V99.37h-.21a18.83,18.83,0,0,1-7.95,7.12A25,25,0,0,1,298.18,109h-.62a26.07,26.07,0,0,1-11.64-2.6,29.16,29.16,0,0,1-9.14-7,33,33,0,0,1-5.71-9.66A30.71,30.71,0,0,1,269,78.69a32.86,32.86,0,0,1,2-11.27A29.27,29.27,0,0,1,285.61,50.9a26.88,26.88,0,0,1,10.81-3,3.34,3.34,0,0,1,.78-.1h1.61A25.93,25.93,0,0,1,308.1,50a21,21,0,0,1,7.64,5.61V30.38h13.82ZM316.68,78.28a16.09,16.09,0,0,0-5.09-12,16.86,16.86,0,0,0-12.16-4.93,15.87,15.87,0,0,0-11.64,5,16.12,16.12,0,0,0-5,11.69,17.64,17.64,0,0,0,4.78,12.36,15.67,15.67,0,0,0,12.05,5.2,16.21,16.21,0,0,0,12.11-5.09,16.86,16.86,0,0,0,4.93-12.16Z"/><path class="cls-6" d="M340.05,30.38h13.82V43H340.05Zm0,19.22h13.82v57.56H340.05Z"/><path class="cls-7" d="M365,49.6h12.78v5.3H378a15.78,15.78,0,0,1,6.29-5,23.82,23.82,0,0,1,8.16-2.08h2.08a3.57,3.57,0,0,1,.83.1A22.92,22.92,0,0,1,410.08,55l.78.78a4.53,4.53,0,0,1,.68.88,21.32,21.32,0,0,1,3.95,10,92.11,92.11,0,0,1,.62,10.81v29.72H402.29V77.34q0-1.45-.1-2.91a30.21,30.21,0,0,0-.73-4.42,14.36,14.36,0,0,0-1.56-3.9,9.8,9.8,0,0,0-3.69-3.32,12.36,12.36,0,0,0-4.83-1.45h-1.3a3.25,3.25,0,0,0-.78.1,12.73,12.73,0,0,0-4.68,1.61,9.46,9.46,0,0,0-3.53,3.38,12.7,12.7,0,0,0-1.56,3.9,24.68,24.68,0,0,0-.62,4.52c-.07.9-.1,1.8-.1,2.7v29.61H365Z"/><path class="cls-8" d="M485.21,49.6V98.44a39.1,39.1,0,0,1-1.71,12.05,26.76,26.76,0,0,1-6.39,10.18,33.36,33.36,0,0,1-10.44,7.22,30.29,30.29,0,0,1-12.42,2.65A31.65,31.65,0,0,1,437,125.4a27.25,27.25,0,0,1-11.33-13.87h15.69a16.64,16.64,0,0,0,4.1,3.12,17.65,17.65,0,0,0,4.93,1.87,11.3,11.3,0,0,0,2,.42,17.6,17.6,0,0,0,1.87.1c.48,0,1,0,1.4-.05s.92-.09,1.4-.16a21.73,21.73,0,0,0,5.46-1.56,15.74,15.74,0,0,0,4.62-3A13.72,13.72,0,0,0,471,106.8a36.11,36.11,0,0,0,1.45-6.18,2,2,0,0,0,.16-.52,4,4,0,0,0,.05-.62l-.21-.31a27,27,0,0,1-7.95,7.22A20.27,20.27,0,0,1,454,109a22.67,22.67,0,0,1-2.6-.15,24.45,24.45,0,0,1-2.7-.47,32.72,32.72,0,0,1-8.36-3.12,26,26,0,0,1-6.91-5.2,28.41,28.41,0,0,1-6.29-9.87,35.81,35.81,0,0,1-2.34-11.53v-1a28.71,28.71,0,0,1,2.08-10.86,32.26,32.26,0,0,1,5.61-9.19,30.28,30.28,0,0,1,9.72-7.12,28.2,28.2,0,0,1,12.11-2.65,23.58,23.58,0,0,1,10.49,2.39,16.42,16.42,0,0,1,7.48,7.38l.21-.1V49.6Zm-13,29A16.95,16.95,0,0,0,455,61.34a15.68,15.68,0,0,0-6.39,1.35,16.56,16.56,0,0,0-5.35,3.74,15.81,15.81,0,0,0-3.48,5.4,17.94,17.94,0,0,0-1.09,6.34,17,17,0,0,0,4.93,12.47,16.74,16.74,0,0,0,12.42,5,15,15,0,0,0,11.53-5.14,17,17,0,0,0,4.68-11.79Z"/><polygon class="cls-9" points="847.51 146.85 847.51 189.38 869.29 146.85 847.51 146.85"/><path class="cls-10" d="M114.57,253.68l-6.49,1.6q-4.67,1.14-7.18,1.48t-6.95,1a25.65,25.65,0,0,1-6.95.34q-2.51-.34-6.15-.8a11.46,11.46,0,0,1-5.7-2,43.93,43.93,0,0,1-4.1-3.64,11.84,11.84,0,0,1-3-5.35,27.75,27.75,0,0,1-.91-7.4V164.17A16.88,16.88,0,0,1,73.12,151q5.92-5.24,15.49-5.24a66,66,0,0,1,23,3.87l7.06-22.78a70.69,70.69,0,0,0-29.38-7.52h-3Q72.2,119.29,62,125A40.94,40.94,0,0,0,47,140q-4.9,8.88-4.9,26.19v73.11q0,14.35,5.12,24T60.7,277.48a49.11,49.11,0,0,0,19.25,5.35,64.79,64.79,0,0,0,7.52.45A78.84,78.84,0,0,0,102,281.92a111.05,111.05,0,0,0,22.32-6.15l-3.87-23.69Q116.39,253.22,114.57,253.68Z"/><path class="cls-10" d="M180.49,121.57,143.13,281h28.24l8.88-41.68h36.67L226.27,281H256.1L215.79,121.57Zm5.69,91.11L198,163.48l13,49.2Z"/><polygon class="cls-10" points="336.09 146.85 347.67 124.25 347.67 121.57 256.1 121.57 256.1 146.85 288.9 146.85 288.9 238.98 313.96 190.06 313.96 146.85 336.09 146.85"/><path class="cls-10" d="M389.53,121.57,352.17,281h28.24l8.88-41.68H426L435.31,281h29.84L424.83,121.57Zm5.69,91.11,11.84-49.2,13,49.2Z"/><polygon class="cls-10" points="508.96 121.57 483.91 121.57 483.91 281.01 566.13 281.01 566.13 258 508.96 258 508.96 121.57"/><path class="cls-10" d="M642.61,202.89l-.91.68a13.08,13.08,0,0,1-1.14,1.37c-.31.31-.8.76-1.48,1.37a9.14,9.14,0,0,1-1.93,1.37c-.61.31-1.41.72-2.39,1.25a15.33,15.33,0,0,1-3.08,1.25q-1.59.46-3.53.91a31.94,31.94,0,0,1-4.33.69q-2.39.23-5.12.23-27.11,0-27.1-27.33V121.57H566.54v65.37q0,22.78,14.35,36.21t37.81,13.44a52.79,52.79,0,0,0,23.92-5.69v12.76q0,12.08-4.78,16.85a20.24,20.24,0,0,1-12.3,5.69l8,19.13q18.67-1.83,26.42-11.84t7.74-28V121.57H642.61Z"/><path class="cls-10" d="M762.32,192.75a218.35,218.35,0,0,0-22.32-11,149.33,149.33,0,0,1-19.47-9.79q-8.2-5-8.88-10.93v-1.37q0-6.15,5.47-10.25,6.15-4.55,19.13-4.55,9.57,0,25.05,5,1.14-3.19,3.19-9.34l3.42-10.25,1.37-4.1q-14.35-6.83-33.25-6.83-24.83,0-38.15,11.73T684.54,158.7a37.54,37.54,0,0,0,4.21,18.22,34.91,34.91,0,0,0,11,12.41,101.25,101.25,0,0,0,15,8.43q8.2,3.76,16.29,7.17A110.06,110.06,0,0,1,746,212.56a34.25,34.25,0,0,1,11,10.82,28.62,28.62,0,0,1,4.21,15.72q0,7.29-6.61,13.55t-20.5,6.26q-11.39,0-18.45-6.15a24.22,24.22,0,0,1-8.2-16.17l-26.88,3.87q.45,16.86,14.69,30t39.06,13.1q27.56,0,41-13.21t13.44-33.48q0-15.26-7.74-26.53A56.6,56.6,0,0,0,762.32,192.75Z"/><path class="cls-10" d="M914.43,58.5l-33.22,63.88v-.81H789.65v25.28h32.8v88.53l-54,103.83,5.69,3,146-280.71Zm-66.93,88.35h21l-21,40.35Z"/><polygon class="cls-11" points="959 103.29 921.96 103.29 903.44 135.37 921.96 167.45 959 167.45 977.53 135.37 959 103.29"/><path class="cls-10" d="M822.15,298.54V277.42h3.45v21.12Z"/><path class="cls-10" d="M848.78,298.54h-4.23l-10.39-16.83H834l.07.94q.2,2.69.2,4.91v11h-3.14V277.42h4.19l10.36,16.75h.09q0-.33-.12-2.42t-.09-3.26V277.42h3.16Z"/><path class="cls-10" d="M872,298.54h-4.23l-10.39-16.83h-.12l.07.94q.2,2.69.2,4.91v11h-3.14V277.42h4.19l10.36,16.75H869q0-.33-.12-2.42t-.09-3.26V277.42H872Z"/><path class="cls-10" d="M896.28,288q0,5.16-2.58,8a9.33,9.33,0,0,1-7.3,2.86q-4.78,0-7.35-2.84t-2.56-8.07q0-5.23,2.58-8t7.36-2.8a9.31,9.31,0,0,1,7.28,2.85Q896.28,282.78,896.28,288Zm-16.12,0a9.46,9.46,0,0,0,1.58,5.92,6.41,6.41,0,0,0,9.31,0q1.57-2,1.57-5.94a9.51,9.51,0,0,0-1.55-5.89,5.49,5.49,0,0,0-4.63-2,5.61,5.61,0,0,0-4.69,2A9.38,9.38,0,0,0,880.16,288Z"/><path class="cls-10" d="M912.85,277.42h3.58L909,298.54H905.4L898,277.42h3.55L906,290.55q.35.94.74,2.42t.51,2.2q.19-1.1.58-2.54t.64-2.14Z"/><path class="cls-10" d="M932.33,298.54l-2.11-5.87h-8.08l-2.07,5.87h-3.64l7.9-21.21h3.76l7.9,21.21Zm-3-8.84-2-5.75q-.22-.58-.6-1.82t-.53-1.82a32.27,32.27,0,0,1-1.14,3.89l-1.91,5.5Z"/><path class="cls-10" d="M946.08,298.54h-3.45V280.38h-6.21v-3H952.3v3h-6.21Z"/><path class="cls-10" d="M955.53,298.54V277.42H959v21.12Z"/><path class="cls-10" d="M982.16,298.54h-4.23l-10.39-16.83h-.12l.07.94q.2,2.69.2,4.91v11h-3.14V277.42h4.19l10.36,16.75h.09q0-.33-.12-2.42t-.09-3.26V277.42h3.16Z"/><path class="cls-10" d="M996.38,287.08h7.77v10.6a22.55,22.55,0,0,1-3.66.88,26,26,0,0,1-3.79.26q-4.8,0-7.4-2.84t-2.6-8q0-5.1,2.93-8t8.08-2.88a15.73,15.73,0,0,1,6.27,1.27l-1.21,2.88a12.2,12.2,0,0,0-5.14-1.18,6.93,6.93,0,0,0-5.35,2.12,8.22,8.22,0,0,0-2,5.81,8.67,8.67,0,0,0,1.77,5.89,6.42,6.42,0,0,0,5.09,2,16.68,16.68,0,0,0,3.58-.42V290h-4.38Z"/><path class="cls-10" d="M810.2,328.54h-3.42V307.42H818.7v2.92h-8.5v6.6h8v2.93h-8Z"/><path class="cls-10" d="M839.08,307.42v13.67a8.11,8.11,0,0,1-1,4.1,6.69,6.69,0,0,1-2.9,2.7,10.09,10.09,0,0,1-4.54.95,8.5,8.5,0,0,1-6.11-2.08,7.53,7.53,0,0,1-2.18-5.72V307.42h3.47v13.36a5.34,5.34,0,0,0,1.21,3.86,5,5,0,0,0,3.73,1.24q4.88,0,4.88-5.13V307.42Z"/><path class="cls-10" d="M851.78,328.54h-3.45V310.38h-6.21v-3H858v3h-6.21Z"/><path class="cls-10" d="M877.79,307.42v13.67a8.11,8.11,0,0,1-1,4.1,6.69,6.69,0,0,1-2.9,2.7,10.09,10.09,0,0,1-4.54.95,8.5,8.5,0,0,1-6.11-2.08A7.53,7.53,0,0,1,861,321V307.42h3.47v13.36a5.34,5.34,0,0,0,1.21,3.86,5,5,0,0,0,3.73,1.24q4.88,0,4.88-5.13V307.42Z"/><path class="cls-10" d="M886.65,320.1v8.44h-3.45V307.42h6q4.09,0,6.05,1.53a5.5,5.5,0,0,1,2,4.62q0,3.94-4.1,5.62l6,9.35h-3.93l-5.06-8.44Zm0-2.86H889a5.47,5.47,0,0,0,3.5-.9,3.25,3.25,0,0,0,1.08-2.66,2.86,2.86,0,0,0-1.17-2.57,6.42,6.42,0,0,0-3.53-.78h-2.28Z"/><path class="cls-10" d="M914.05,328.54H902.11V307.42h11.95v2.92h-8.5v5.75h8V319h-8v6.63h8.5Z"/></svg>